PathFileType	4	(X/Y/Z)	C:/Users/dbak576/Desktop/Duncan Bakke Modelling Files/H27s1/Static_H27s1.trc	
DataRate	CameraRate	NumFrames	NumMarkers	Units	OrigDataRate	OrigDataStartFrame	OrigNumFrames	
200.00	200.00	4	61	mm	200.00	1467	70	
Frame#	Time	LFHD			RFHD			LBHD			RBHD			C7			T10			CLAV			STRN			RBack			LASI			RASI			LPSI			RPSI			RACR1			RUA1			RElbow			RElbowM			RFA1			RWRR			RWRU			RCAR			LACR1			LUA1			LElbow			LElbowM			LFA1			LWRR			LWRU			LCAR			RTH1			RTH3			RTH2			RTH4			RLFC			RMFC			RTB1			RTB3			RTB2			RTB4			RLMAL			RMMAL			RCAL			RMT1			RMT5			RToe			LTH1			LTH3			LTH2			LTH4			LLFC			LMFC			LTB1			LTB3			LTB2			LTB4			LLMAL			LMMAL			LCAL			LMT1			LMT5			LToe			
		X1	Y1	Z1	X2	Y2	Z2	X3	Y3	Z3	X4	Y4	Z4	X5	Y5	Z5	X6	Y6	Z6	X7	Y7	Z7	X8	Y8	Z8	X9	Y9	Z9	X10	Y10	Z10	X11	Y11	Z11	X12	Y12	Z12	X13	Y13	Z13	X14	Y14	Z14	X15	Y15	Z15	X16	Y16	Z16	X17	Y17	Z17	X18	Y18	Z18	X19	Y19	Z19	X20	Y20	Z20	X21	Y21	Z21	X22	Y22	Z22	X23	Y23	Z23	X24	Y24	Z24	X25	Y25	Z25	X26	Y26	Z26	X27	Y27	Z27	X28	Y28	Z28	X29	Y29	Z29	X30	Y30	Z30	X31	Y31	Z31	X32	Y32	Z32	X33	Y33	Z33	X34	Y34	Z34	X35	Y35	Z35	X36	Y36	Z36	X37	Y37	Z37	X38	Y38	Z38	X39	Y39	Z39	X40	Y40	Z40	X41	Y41	Z41	X42	Y42	Z42	X43	Y43	Z43	X44	Y44	Z44	X45	Y45	Z45	X46	Y46	Z46	X47	Y47	Z47	X48	Y48	Z48	X49	Y49	Z49	X50	Y50	Z50	X51	Y51	Z51	X52	Y52	Z52	X53	Y53	Z53	X54	Y54	Z54	X55	Y55	Z55	X56	Y56	Z56	X57	Y57	Z57	X58	Y58	Z58	X59	Y59	Z59	X60	Y60	Z60	X61	Y61	Z61	

1	0.000	-51.29817	-363.10690	1605.30481	42.76556	-362.72485	1600.44617	-81.78197	-517.52698	1560.60400	61.99304	-516.90564	1562.78088	-13.41464	-556.83661	1420.65955	-23.07199	-577.19501	1142.08826	-14.94511	-410.69113	1365.93457	-11.29805	-342.98199	1279.16675	89.03140	-593.04218	1314.44202	-147.20172	-307.43134	968.79736	139.83565	-331.26871	986.32428	-67.77551	-556.69989	976.89508	21.64697	-562.11969	979.21136	107.34091	-504.71875	1417.80090	278.67511	-521.15332	1391.99292	397.81381	-537.28705	1335.15796	396.52515	-458.15906	1283.87122	533.88586	-533.26471	1308.39185	648.63837	-505.79388	1377.97388	653.30670	-492.92603	1309.68762	705.28186	-540.09985	1343.68188	-139.76346	-506.62595	1417.36133	-308.49530	-512.00726	1398.72620	-433.98642	-508.12399	1360.48206	-433.20740	-455.83511	1312.09790	-562.13489	-500.18097	1349.10352	-677.03766	-471.59128	1422.73413	-679.12164	-449.03909	1359.10242	-733.70233	-491.39682	1394.58752	221.13916	-412.10892	756.00952	195.83849	-444.42792	588.83820	185.82013	-374.90851	665.85706	206.27219	-429.99811	671.58423	181.01387	-464.16840	504.47705	33.94318	-458.13965	481.78271	135.71977	-425.87085	344.44400	159.27818	-442.16251	174.81870	202.45784	-460.43250	269.07455	148.65001	-437.51920	254.85773	197.52147	-489.27197	66.02449	116.37521	-464.65311	61.83870	160.99037	-541.55292	25.18512	153.17815	-364.74310	33.80600	230.98636	-403.45673	28.36279	189.76302	-298.14520	27.42080	-245.11366	-410.03937	765.41150	-198.64337	-446.07202	605.09369	-199.86426	-372.53900	681.14087	-216.78209	-428.53250	687.24603	-177.66771	-469.23041	485.36279	-27.84880	-481.25949	473.52295	-118.82411	-433.24103	339.95621	-139.07466	-450.77533	169.37354	-184.46069	-465.60809	261.38040	-127.49279	-442.98499	254.07822	-172.47495	-496.29684	62.42903	-89.78202	-473.54681	56.76782	-132.53549	-553.91144	28.80860	-123.51070	-372.45599	27.56977	-199.10927	-410.96112	25.13648	-160.46422	-305.73477	22.62810 
2	0.005	-51.28703	-363.28116	1605.37463	42.83274	-362.82297	1600.44177	-81.84532	-517.61530	1560.60522	62.04577	-516.92419	1562.69080	-13.40192	-556.85992	1420.69043	-23.03522	-577.25092	1142.06848	-14.88128	-410.66327	1365.94031	-11.26141	-343.02887	1279.18542	89.08015	-593.13837	1314.43787	-147.20863	-307.44012	968.80939	139.85922	-331.25003	986.33466	-67.76561	-556.73956	976.88281	21.31379	-562.21173	979.26971	107.35355	-504.78046	1417.81274	278.73441	-521.11334	1391.85742	397.86472	-537.34052	1335.11365	396.51639	-458.21048	1283.75806	533.91119	-533.28937	1308.39905	648.62836	-505.75095	1377.98132	653.49457	-491.61679	1309.79236	705.32532	-540.11334	1343.71313	-139.78093	-506.68658	1417.39453	-308.48080	-512.00726	1398.74158	-433.81430	-508.10892	1360.46582	-433.18814	-455.74310	1312.09595	-562.13715	-500.12833	1349.05603	-677.04504	-471.57620	1422.72827	-678.80402	-448.72485	1358.80457	-733.84998	-491.68765	1394.65356	221.12413	-412.10806	756.01288	195.86461	-444.43744	588.85309	185.82030	-374.90009	665.85620	206.27536	-430.00439	671.58093	181.00983	-464.16064	504.47308	33.66742	-457.63379	482.17059	135.74582	-425.92032	344.44211	159.28754	-442.16983	174.81538	202.46255	-460.43533	269.07593	148.79111	-437.57764	254.70685	197.54402	-489.39233	66.11538	116.36637	-464.65494	61.84054	161.10852	-541.66211	25.21090	153.13551	-364.78842	33.70990	231.10345	-403.48514	28.50363	189.76512	-298.14050	27.41828	-245.09186	-410.08322	765.41327	-198.63618	-446.06616	605.10101	-199.86176	-372.55435	681.13605	-216.77414	-428.53946	687.22748	-177.68198	-469.23596	485.32590	-27.87259	-481.25806	473.53073	-118.82113	-433.23611	339.93860	-139.07233	-450.76422	169.36845	-184.45363	-465.62195	261.39313	-127.49751	-442.98785	254.08954	-172.49849	-496.30356	62.37278	-89.62835	-473.62213	56.71180	-132.61263	-553.89429	28.70971	-123.51228	-372.45538	27.57835	-199.11757	-410.95193	25.13562	-160.47702	-305.71405	22.63610 
3	0.010	-51.29805	-363.49164	1605.46436	42.90698	-362.88470	1600.43213	-81.86497	-517.66797	1560.58679	62.24620	-516.79639	1562.42688	-13.38816	-556.92676	1420.65100	-23.00134	-577.29163	1142.06018	-14.80695	-410.63901	1365.91260	-11.21572	-343.06805	1279.20129	89.09509	-593.25989	1314.45093	-147.21759	-307.44934	968.82660	139.87852	-331.23499	986.34619	-67.75629	-556.77118	976.87543	21.00954	-562.30737	979.32599	107.37646	-504.82944	1417.81592	278.88293	-521.04645	1391.70581	397.90903	-537.39001	1335.08105	396.51251	-458.23364	1283.67725	533.94159	-533.32086	1308.41577	648.62451	-505.71765	1377.99402	653.69037	-490.23199	1309.91846	705.37109	-540.11212	1343.74841	-139.80598	-506.76944	1417.43726	-308.42233	-511.99719	1398.72070	-433.65277	-508.11136	1360.43347	-433.15549	-455.64020	1312.10999	-562.22192	-499.98514	1348.86377	-677.02948	-471.57889	1422.72852	-678.68933	-448.46902	1358.38696	-734.00201	-491.93707	1394.68127	221.12029	-412.09378	756.02667	195.89255	-444.44379	588.87836	185.82297	-374.90460	665.84070	206.27654	-430.01190	671.57715	181.00380	-464.15924	504.44922	33.36892	-457.17358	482.55838	135.76802	-425.97635	344.43799	159.30026	-442.17560	174.80635	202.47015	-460.43616	269.07501	148.89577	-437.62125	254.60199	197.52559	-489.42648	66.13326	116.35995	-464.65723	61.84312	161.14864	-541.79663	25.18133	153.10605	-364.83212	33.63823	231.17148	-403.53943	28.52474	189.76616	-298.13928	27.42678	-245.08640	-410.10904	765.41943	-198.63277	-446.06735	605.10364	-199.85529	-372.56357	681.12646	-216.76767	-428.54092	687.22046	-177.65681	-469.24127	485.33597	-27.80973	-481.25214	473.70126	-118.81760	-433.21481	339.92758	-139.07568	-450.74893	169.37460	-184.44011	-465.62625	261.40170	-127.50380	-442.98322	254.09189	-172.51331	-496.29099	62.29279	-89.50101	-473.69083	56.67184	-132.66983	-553.87134	28.62922	-123.50857	-372.45593	27.58271	-199.11969	-410.95786	25.14504	-160.49043	-305.69366	22.65643 
4	0.015	-51.29206	-363.72412	1605.55396	42.97672	-362.93002	1600.43689	-81.84010	-517.70361	1560.55859	62.58394	-516.63849	1562.10474	-13.36716	-557.00403	1420.61340	-22.95770	-577.31769	1142.03027	-14.75154	-410.70749	1365.86047	-11.17674	-343.09930	1279.21729	89.08772	-593.38580	1314.46863	-147.22673	-307.47098	968.83215	139.89185	-331.22675	986.36035	-67.75063	-556.78918	976.86157	20.75990	-562.41162	979.39282	107.41282	-504.86270	1417.80627	279.07977	-520.97974	1391.60376	397.95139	-537.42511	1335.04565	396.50674	-458.23468	1283.62671	533.96472	-533.35193	1308.42383	648.63922	-505.70187	1377.99365	653.87128	-489.41205	1310.05151	705.41974	-540.09265	1343.77112	-139.83670	-506.87622	1417.46948	-308.39081	-512.00165	1398.67456	-433.49921	-508.11786	1360.38513	-433.11642	-455.52725	1312.12329	-562.28625	-499.82172	1348.63782	-677.02429	-471.59232	1422.64771	-678.58606	-448.24487	1357.98560	-734.12158	-492.13174	1394.67981	221.12817	-412.06897	756.04126	195.91127	-444.44736	588.89429	185.82211	-374.89813	665.85217	206.27634	-430.02286	671.57385	180.99904	-464.15012	504.44122	33.06631	-456.77322	482.91913	135.78799	-426.04321	344.43182	159.31418	-442.17578	174.79446	202.47749	-460.43460	269.07468	148.96761	-437.65259	254.54552	197.49559	-489.38419	66.11801	116.35599	-464.65866	61.84209	161.12555	-541.81165	25.25038	153.09628	-364.85651	33.60918	231.32942	-403.63681	28.40296	189.76680	-298.13760	27.41616	-245.09406	-410.11465	765.42834	-198.62651	-446.06915	605.12866	-199.84634	-372.56656	681.11554	-216.76836	-428.53873	687.21735	-177.57086	-469.25031	485.31152	-27.87766	-481.22897	473.77966	-118.80930	-433.20609	339.91974	-139.07697	-450.73392	169.38303	-184.42908	-465.62054	261.40015	-127.51974	-442.97409	254.07239	-172.50725	-496.28381	62.29345	-89.44724	-473.71042	56.69559	-132.78716	-553.82111	28.56243	-123.50145	-372.45639	27.57665	-199.09625	-410.95300	25.13790	-160.46603	-305.69992	22.71512 
